<?xml version="1.0" standalone="no"?><!DOCTYPE svg PUBLIC "-//W3C//DTD SVG 1.1//EN" "http://www.w3.org/Graphics/SVG/1.1/DTD/svg11.dtd"><svg t="1508138165267" class="icon" style="" viewBox="0 0 1024 1024" version="1.1" xmlns="http://www.w3.org/2000/svg" p-id="2911" xmlns:xlink="http://www.w3.org/1999/xlink" width="200" height="200"><defs><style type="text/css"></style></defs><path d="M1008 917.2c0 12.96-0.592 32.4-1.856 58.352L16.896 975.552c0-6.16-0.096-15.728-0.448-28.688C16.144 933.856 16 923.968 16 917.2c0-18.528 0.304-30.016 0.896-34.336 7.44-30.304 27.216-56.4 59.36-78.32 32.176-21.936 66.608-38.32 103.36-49.168 36.768-10.8 75.616-25.344 116.336-43.616 40.848-18.208 70.816-38.416 89.92-60.704 10.512-13.568 15.792-25.296 15.792-35.216 0-13.616-3.424-36.16-10.208-67.696-2.48-12.992-5.728-24.256-9.712-33.856-4.032-9.568-9.008-19.712-14.88-30.576-5.84-10.768-10.672-20.528-14.336-29.184-9.312-21.632-19.472-62.464-30.64-122.416-3.664-23.472-5.52-46.656-5.52-69.52 0-64.896 16.48-116.816 49.584-155.76 33.088-38.928 81.744-58.384 146.016-58.384 64.272 0 112.992 19.472 146.016 58.384 33.024 38.992 49.584 90.88 49.584 155.76 0 19.152-2.16 42.336-6.496 69.52-8.656 55.04-18.496 95.856-29.664 122.416-3.664 8.656-8.512 18.384-14.336 29.184-5.888 10.864-10.832 21.008-14.864 30.576-4.016 9.616-7.28 20.88-9.744 33.856-6.784 31.552-10.176 54.064-10.176 67.696 0 11.12 5.232 22.912 15.76 35.216 19.152 22.288 49.12 42.496 89.952 60.704 40.768 18.272 79.376 32.832 115.84 43.616 36.464 10.864 70.784 27.232 102.96 49.168 32.128 21.904 51.856 48.016 59.264 78.32C1007.408 887.808 1008 899.296 1008 917.2z" p-id="2912"></path></svg>