<?xml version="1.0" standalone="no"?><!DOCTYPE svg PUBLIC "-//W3C//DTD SVG 1.1//EN" "http://www.w3.org/Graphics/SVG/1.1/DTD/svg11.dtd"><svg t="1508137961055" class="icon" style="" viewBox="0 0 1024 1024" version="1.1" xmlns="http://www.w3.org/2000/svg" p-id="3918" xmlns:xlink="http://www.w3.org/1999/xlink" width="200" height="200"><defs><style type="text/css"></style></defs><path d="M971.093 865.28c-20.481 64.853-109.227 158.72-191.147 158.72v0h-5.119c-122.88-6.827-290.133-121.173-447.147-308.907l-58.027-69.973c-155.307-187.733-237.227-370.347-218.454-489.813 13.653-83.627 139.947-155.307 211.627-155.308 35.84 0 47.787 17.067 52.907 27.307 40.961 71.68 90.453 196.267 92.16 242.347v3.412l-1.707 3.412c-8.533 23.893-29.013 34.133-46.080 44.373-23.893 13.653-35.84 22.187-37.547 46.080 0 6.826 6.827 40.961 109.227 167.253l44.373 52.906c104.107 121.173 136.532 134.827 143.36 134.827 25.6 3.412 35.84-6.827 54.613-27.307 13.653-15.36 29.013-32.427 54.613-35.84h6.826c44.373 10.24 160.427 83.627 225.28 138.239 6.827 8.533 22.188 27.307 10.24 68.267v0zM930.133 827.733c-71.68-59.733-167.253-114.347-201.387-124.587-10.24 3.413-18.773 10.24-30.72 23.893-18.773 18.773-42.667 42.667-88.747 35.84-20.48-3.413-59.733-22.187-174.080-157.013l-11.947-13.653-6.827-11.947-11.947-13.653c-112.64-136.533-128-182.613-126.294-201.387 3.413-44.373 35.84-64.853 58.027-76.8 15.36-8.533 25.6-13.653 29.013-23.893-3.413-35.84-39.253-136.532-83.627-215.040-3.413-6.827-15.36-8.533-20.48-8.533-56.32 0-158.72 56.32-168.96 119.467-13.654 85.333 34.133 250.88 211.627 462.507l58.027 69.973c175.787 211.627 327.68 286.72 414.72 290.133h3.412c63.147 0 133.12-75.093 150.187-128 3.413-11.947 5.119-23.893 0-27.307z" p-id="3919"></path></svg>