<?xml version="1.0" standalone="no"?><!DOCTYPE svg PUBLIC "-//W3C//DTD SVG 1.1//EN" "http://www.w3.org/Graphics/SVG/1.1/DTD/svg11.dtd"><svg t="1508137937106" class="icon" style="" viewBox="0 0 1024 1024" version="1.1" xmlns="http://www.w3.org/2000/svg" p-id="3249" xmlns:xlink="http://www.w3.org/1999/xlink" width="200" height="200"><defs><style type="text/css"></style></defs><path d="M873.065917 228.194212c-1.173732-2.741437-7.405667-16.373922-21.270443-32.266891-1.216711-1.211595-2.442632-2.433422-3.604084-3.580548-5.334495-5.704932-11.859096-12.458753-19.87056-20.470217-6.599302-6.600325-13.359262-11.512195-20.1182-15.109116-1.226944-0.824785-2.211365-1.422396-2.958378-1.819438l-0.141216 0.261966c-31.036877-14.651698-61.492516-1.760087-75.540464 9.528004l-1.648546 1.327228-62.159712 73.335239L328.361051 576.794725l-25.41074 112.49205 34.326806 34.323737 112.487957-25.409716-0.026606-0.026606 348.114442-348.115466 61.424978-52.063773 1.330298-1.64957C870.996792 283.415908 882.684996 256.583796 873.065917 228.194212zM355.579973 670.976758l12.018731-53.193503 41.181935 41.180911L355.579973 670.976758zM449.739493 635.529431l-58.731636-58.733683L680.158373 287.644209l58.733683 58.731636L449.739493 635.529431zM827.208497 267.107477l-56.798611 48.143487-60.010769-60.012815 48.40136-57.100486c10.611685-7.637957 20.827351-5.615904 28.048823-2.079358 4.371564 3.498684 13.380752 11.242042 29.494755 27.108405 4.79419 5.143137 8.265244 9.06547 10.698666 11.93482C831.632249 242.202251 836.37732 254.366292 827.208497 267.107477z" p-id="3250"></path><path d="M761.541915 428.481841c-11.07729 0-20.172435 8.141424-21.827121 18.751063l-0.305969 0 0 3.042289c-0.00307 0.12689-0.037862 0.245593-0.037862 0.375553s0.034792 0.248663 0.037862 0.375553L739.408825 749.288335c0 24.426319-19.872606 44.298925-44.298925 44.298925l-424.63114 0c-24.426319 0-44.298925-19.872606-44.298925-44.298925L226.179834 324.657194c0-24.426319 19.872606-44.298925 44.298925-44.298925l261.150812 0c0.12689 0.00307 0.245593 0.037862 0.375553 0.037862s0.248663-0.034792 0.375553-0.037862l0.602727 0 0-0.062422c11.778254-0.521886 21.187555-10.158361 21.187555-22.068621 0-11.910261-9.4093-21.546735-21.187555-22.067598l0-0.100284L270.478759 236.059344c-48.851615 0-88.597851 39.745213-88.597851 88.597851l0 424.63114c0 48.852638 39.745213 88.597851 88.597851 88.597851l424.63114 0c48.851615 0 88.597851-39.745213 88.597851-88.597851L783.70775 447.232904l-0.343831 0C781.709233 436.623265 772.615111 428.481841 761.541915 428.481841z" p-id="3251"></path></svg>