<svg xmlns="http://www.w3.org/2000/svg" width="29" height="29" viewBox="0 0 29 29">
  <metadata><?xpacket begin="﻿" id="W5M0MpCehiHzreSzNTczkc9d"?>
<x:xmpmeta xmlns:x="adobe:ns:meta/" x:xmptk="Adobe XMP Core 5.6-c138 79.159824, 2016/09/14-01:09:01        ">
   <rdf:RDF xmlns:rdf="http://www.w3.org/1999/02/22-rdf-syntax-ns#">
      <rdf:Description rdf:about=""/>
   </rdf:RDF>
</x:xmpmeta>
                                                                                                    
                                                                                                    
                                                                                                    
                                                                                                    
                                                                                                    
                                                                                                    
                                                                                                    
                                                                                                    
                                                                                                    
                                                                                                    
                                                                                                    
                                                                                                    
                                                                                                    
                                                                                                    
                                                                                                    
                                                                                                    
                                                                                                    
                                                                                                    
                                                                                                    
                                                                                                    
                           
<?xpacket end="w"?></metadata>
<defs>
    <style>
      .cls-1 {
        fill: none;
        stroke: #a0a0a0;
        stroke-width: 1px;
        fill-rule: evenodd;
      }
    </style>
  </defs>
  <path id="形状_5_拷贝" data-name="形状 5 拷贝" class="cls-1" d="M663.676,672.779l-6.186-2.407a6.453,6.453,0,0,1-1.638-.907,2.03,2.03,0,0,1-.013-1.843c0.261-.871,3.432-4.411,3.432-7.628,0-4.967-3.27-8.994-7.3-8.994s-7.3,4.027-7.3,9c0,3.08,2.826,6.752,3.174,7.42a2.2,2.2,0,0,1-.011,1.993,6.2,6.2,0,0,1-1.926.927l-5.576,2.481A3.414,3.414,0,0,0,638,675.9v1.819c0,1.51,1.229,1.272,2.739,1.272h22.522c1.51,0,2.739.238,2.739-1.272V675.9a3.46,3.46,0,0,0-2.324-3.116" transform="translate(-637.5 -650.5)"/>
</svg>
