<svg xmlns="http://www.w3.org/2000/svg" width="23" height="22" viewBox="0 0 23 22">
  <metadata><?xpacket begin="﻿" id="W5M0MpCehiHzreSzNTczkc9d"?>
<x:xmpmeta xmlns:x="adobe:ns:meta/" x:xmptk="Adobe XMP Core 5.6-c138 79.159824, 2016/09/14-01:09:01        ">
   <rdf:RDF xmlns:rdf="http://www.w3.org/1999/02/22-rdf-syntax-ns#">
      <rdf:Description rdf:about=""/>
   </rdf:RDF>
</x:xmpmeta>
                                                                                                    
                                                                                                    
                                                                                                    
                                                                                                    
                                                                                                    
                                                                                                    
                                                                                                    
                                                                                                    
                                                                                                    
                                                                                                    
                                                                                                    
                                                                                                    
                                                                                                    
                                                                                                    
                                                                                                    
                                                                                                    
                                                                                                    
                                                                                                    
                                                                                                    
                                                                                                    
                           
<?xpacket end="w"?></metadata>
<defs>
    <style>
      .cls-1 {
        fill: #f4f1f4;
        fill-rule: evenodd;
      }
    </style>
  </defs>
  <path id="形状_4" data-name="形状 4" class="cls-1" d="M540.878,492.7l-1.932,2.491-0.509,1.246a23.913,23.913,0,0,1-4.88-3.425c-1.729-1.765-3.865-4.567-3.865-4.567v-0.727H530.2l1.932-2.387-2.237-5.6S529.573,479,527.964,479a2.281,2.281,0,0,0-1.932.727s-2.136,2.594-2.034,4.981,1.951,6.674,5.9,10.483c5.593,5.4,9.253,5.4,9.253,5.4a6.07,6.07,0,0,0,2.542.415,4.719,4.719,0,0,0,1.729-.311,3.957,3.957,0,0,0,1.83-.83,7.635,7.635,0,0,0,1.119-1.661,3.112,3.112,0,0,0,.641-1.762,3.229,3.229,0,0,0-.743-1.352l-4.474-2.283Z" transform="translate(-524 -479)"/>
</svg>
