<svg xmlns="http://www.w3.org/2000/svg" width="25" height="25" viewBox="0 0 25 25">
  <metadata><?xpacket begin="﻿" id="W5M0MpCehiHzreSzNTczkc9d"?>
<x:xmpmeta xmlns:x="adobe:ns:meta/" x:xmptk="Adobe XMP Core 5.6-c138 79.159824, 2016/09/14-01:09:01        ">
   <rdf:RDF xmlns:rdf="http://www.w3.org/1999/02/22-rdf-syntax-ns#">
      <rdf:Description rdf:about=""/>
   </rdf:RDF>
</x:xmpmeta>
                                                                                                    
                                                                                                    
                                                                                                    
                                                                                                    
                                                                                                    
                                                                                                    
                                                                                                    
                                                                                                    
                                                                                                    
                                                                                                    
                                                                                                    
                                                                                                    
                                                                                                    
                                                                                                    
                                                                                                    
                                                                                                    
                                                                                                    
                                                                                                    
                                                                                                    
                                                                                                    
                           
<?xpacket end="w"?></metadata>
<defs>
    <style>
      .cls-1 {
        fill-rule: evenodd;
      }
    </style>
  </defs>
  <path id="形状_6" data-name="形状 6" class="cls-1" d="M686.018,484.634A12.516,12.516,0,1,0,687,489.5a12.473,12.473,0,0,0-.982-4.866h0ZM674.5,478.421a11.035,11.035,0,0,1,7.313,2.763l-3.358,3.357a7.028,7.028,0,0,0-9.765,9.764l-2.506,2.508a11.074,11.074,0,0,1,8.316-18.392h0Zm-7.313,19.395,2.42-2.418a7.13,7.13,0,0,0,1.608,1.17v0.961a10.965,10.965,0,0,0-2.9,1.157,10.992,10.992,0,0,1-1.125-.87h0Zm2.53-4.538a5.606,5.606,0,0,1,7.708-7.708Zm0.064,6.245a10.383,10.383,0,0,1,2.275-.727,0.708,0.708,0,0,0,.58-0.7v-1.975a0.708,0.708,0,0,0-.429-0.652,5.6,5.6,0,0,1-1.6-1.078l7.926-7.926a5.6,5.6,0,0,1-1.743,9,0.715,0.715,0,0,0-.431.654V498.1a0.709,0.709,0,0,0,.577.7,10.357,10.357,0,0,1,2.278.728,11.072,11.072,0,0,1-9.438,0h0Zm10.905-.837a10.942,10.942,0,0,0-2.9-1.157v-0.963a7.028,7.028,0,0,0,1.76-11.106l3.271-3.271a11.065,11.065,0,0,1-2.13,16.5v0Zm0,0" transform="translate(-662 -477)"/>
</svg>
