<svg xmlns="http://www.w3.org/2000/svg" width="32" height="30" viewBox="0 0 32 30">
  <metadata><?xpacket begin="﻿" id="W5M0MpCehiHzreSzNTczkc9d"?>
<x:xmpmeta xmlns:x="adobe:ns:meta/" x:xmptk="Adobe XMP Core 5.6-c138 79.159824, 2016/09/14-01:09:01        ">
   <rdf:RDF xmlns:rdf="http://www.w3.org/1999/02/22-rdf-syntax-ns#">
      <rdf:Description rdf:about=""/>
   </rdf:RDF>
</x:xmpmeta>
                                                                                                    
                                                                                                    
                                                                                                    
                                                                                                    
                                                                                                    
                                                                                                    
                                                                                                    
                                                                                                    
                                                                                                    
                                                                                                    
                                                                                                    
                                                                                                    
                                                                                                    
                                                                                                    
                                                                                                    
                                                                                                    
                                                                                                    
                                                                                                    
                                                                                                    
                                                                                                    
                           
<?xpacket end="w"?></metadata>
<defs>
    <style>
      .cls-1 {
        fill: #fff;
        fill-rule: evenodd;
      }
    </style>
  </defs>
  <path id="形状_1" data-name="形状 1" class="cls-1" d="M51.243,154.078a1.241,1.241,0,0,1-1.711-.124l-2.338-2.361a1.22,1.22,0,0,1-.159-1.763,2.154,2.154,0,0,1,3.317-.072l0.892,0.9A2.382,2.382,0,0,1,51.243,154.078Zm-2.523,2.44-12.7,12.824s0.722-.981-1.13-2.851c0,0-1.939-2.226-2.838-1.318l12.524-12.805a1.2,1.2,0,0,1,1.9.169l2.215,2.236A1.1,1.1,0,0,1,48.72,156.518ZM30.514,172.387l-2.293.89,0.82-2.592A1.617,1.617,0,0,1,30.514,172.387Zm3.527-5.041c1.694,1.709,1.077,2.9,1.077,2.9l-3.678,1.416a1.33,1.33,0,0,0-.389-1.355,1.777,1.777,0,0,0-1.268-.588l1.482-3.74C32.508,165.476,34.041,167.346,34.041,167.346Zm-8.422-14.074a3.142,3.142,0,0,0-3.127,3.156v16.89a3.142,3.142,0,0,0,3.127,3.157H42.661a3.142,3.142,0,0,0,3.127-3.157V163.137c0-.021-0.12.018,2.2,0v12.706A3.142,3.142,0,0,1,44.86,179H23.127A3.142,3.142,0,0,1,20,175.843V153.9a3.142,3.142,0,0,1,3.127-3.157H38.058c0,2.529.01,2.526,0.01,2.526H25.619Z" transform="translate(-20 -149)"/>
</svg>
